<svg xmlns:xlink="http://www.w3.org/1999/xlink" width="14" xmlns="http://www.w3.org/2000/svg" height="14" id="screenshot-e0316f9b-62a7-8019-8002-ea9962bc0e87" viewBox="0 0 14 14" style="-webkit-print-color-adjust: exact;" fill="none" version="1.1"><g id="shape-e0316f9b-62a7-8019-8002-ea9962bc0e87" rx="0" ry="0" style="fill: rgb(0, 0, 0);"><g id="shape-e0316f9b-62a7-8019-8002-ea9962bc0e89"><g class="fills" id="fills-e0316f9b-62a7-8019-8002-ea9962bc0e89"><path rx="0" ry="0" d="M9.917,3.500L12.833,3.500L12.833,4.667L11.667,4.667L11.667,12.250C11.667,12.572,11.406,12.833,11.083,12.833L2.917,12.833C2.595,12.833,2.333,12.572,2.333,12.250L2.333,4.667L1.167,4.667L1.167,3.500L4.083,3.500L4.083,1.750C4.083,1.428,4.345,1.167,4.667,1.167L9.333,1.167C9.656,1.167,9.917,1.428,9.917,1.750L9.917,3.500ZZM5.250,6.417L5.250,9.917L6.417,9.917L6.417,6.417L5.250,6.417ZZM7.583,6.417L7.583,9.917L8.750,9.917L8.750,6.417L7.583,6.417ZZM5.250,2.333L5.250,3.500L8.750,3.500L8.750,2.333L5.250,2.333ZZ" style="fill: rgb(158, 0, 0); fill-opacity: 1;"/></g></g></g></svg>