<svg xmlns:xlink="http://www.w3.org/1999/xlink" width="25" xmlns="http://www.w3.org/2000/svg" height="25" id="screenshot-ad55f1a6-0d23-80ea-8002-b2fe9e027449" viewBox="0 0 25 25" style="-webkit-print-color-adjust: exact;" fill="none" version="1.1"><g id="shape-ad55f1a6-0d23-80ea-8002-b2fe9e027449" rx="0" ry="0" style="fill: rgb(0, 0, 0);"><g id="shape-ad55f1a6-0d23-80ea-8002-b2fe9e02744c"><g class="fills" id="fills-ad55f1a6-0d23-80ea-8002-b2fe9e02744c"><path rx="0" ry="0" d="M12.501,2.083C6.746,2.083,2.084,6.745,2.084,12.500C2.084,17.109,5.066,21.003,9.207,22.383C9.728,22.474,9.923,22.161,9.923,21.888C9.923,21.641,9.910,20.820,9.910,19.948C7.293,20.430,6.616,19.310,6.407,18.724C6.290,18.424,5.782,17.500,5.340,17.253C4.975,17.057,4.454,16.576,5.327,16.562C6.147,16.549,6.733,17.318,6.928,17.630C7.866,19.206,9.363,18.763,9.962,18.490C10.053,17.813,10.327,17.357,10.626,17.096C8.308,16.836,5.886,15.938,5.886,11.953C5.886,10.820,6.290,9.883,6.954,9.154C6.850,8.893,6.485,7.826,7.058,6.393C7.058,6.393,7.931,6.120,9.923,7.461C10.756,7.227,11.642,7.109,12.527,7.109C13.412,7.109,14.298,7.227,15.131,7.461C17.123,6.107,17.996,6.393,17.996,6.393C18.569,7.826,18.204,8.893,18.100,9.154C18.764,9.883,19.168,10.807,19.168,11.953C19.168,15.951,16.733,16.836,14.415,17.096C14.793,17.422,15.118,18.047,15.118,19.023C15.118,20.417,15.105,21.536,15.105,21.888C15.105,22.161,15.301,22.487,15.821,22.383C20.061,20.951,22.917,16.975,22.918,12.500C22.918,6.745,18.256,2.083,12.501,2.083ZZ" style="fill: rgb(40, 21, 13); fill-opacity: 1;"/></g></g></g></svg>