<?xml version="1.0" encoding="UTF-8" standalone="no"?>
<svg
   width="70"
   height="90"
   id="screenshot-345a5114-0c1d-802d-8002-be9148a2a55a"
   viewBox="0 0 70 90"
   style="-webkit-print-color-adjust: exact;"
   fill="none"
   version="1.1"
   sodipodi:docname="libro.svg"
   inkscape:version="1.2.2 (b0a8486541, 2022-12-01)"
   xmlns:inkscape="http://www.inkscape.org/namespaces/inkscape"
   xmlns:sodipodi="http://sodipodi.sourceforge.net/DTD/sodipodi-0.dtd"
   xmlns="http://www.w3.org/2000/svg"
   xmlns:svg="http://www.w3.org/2000/svg">
  <defs
     id="defs29">
    <defs
       id="defs17">
      <pattern
         patternUnits="userSpaceOnUse"
         x="29.999904906062966"
         y="15.004879511327658"
         height="15"
         width="20"
         data-loading="false"
         id="fill-0-rumext-id-4">
        <g
           id="g14">
          <rect
             width="20"
             height="15"
             style="fill: rgb(0, 0, 0); fill-opacity: 1;"
             id="rect12" />
        </g>
      </pattern>
    </defs>
  </defs>
  <sodipodi:namedview
     id="namedview27"
     pagecolor="#505050"
     bordercolor="#ffffff"
     borderopacity="1"
     inkscape:showpageshadow="0"
     inkscape:pageopacity="0"
     inkscape:pagecheckerboard="1"
     inkscape:deskcolor="#505050"
     showgrid="false"
     inkscape:zoom="6.2111111"
     inkscape:cx="15.617174"
     inkscape:cy="25.840787"
     inkscape:window-width="1366"
     inkscape:window-height="698"
     inkscape:window-x="0"
     inkscape:window-y="0"
     inkscape:window-maximized="1"
     inkscape:current-layer="screenshot-345a5114-0c1d-802d-8002-be9148a2a55a" />
  <style
     data-loading="false"
     id="style2">
</style>
  <g
     id="shape-345a5114-0c1d-802d-8002-be9148a2a55a"
     rx="0"
     ry="0"
     inkscape:label="libro">
    <rect
       rx="0"
       ry="0"
       x="0"
       y="0"
       width="70"
       height="90"
       style="fill:#e8ff00;fill-opacity:1"
       id="rect4"
       inkscape:label="base" />
    <rect
       rx="0"
       ry="0"
       x="0"
       y="0"
       width="10"
       height="90"
       style="fill:#7e8905;fill-opacity:1"
       id="rect8"
       inkscape:label="lomo" />
    <path
       id="path189"
       d="m 39.386719,17.642578 -1.41211,10.121094 h 0.908203 l 0.251954,-1.021484 c 0.293771,0.909999 0.88062,1.191406 1.580078,1.191406 1.370934,0 2.839844,-1.596707 2.839844,-4.970703 0,-1.889999 -0.782213,-2.730469 -1.859376,-2.730469 -0.6435,0 -1.132793,0.307813 -1.65039,1.007812 l 0.488281,-3.597656 z M 33.875,18.160156 29.482422,27.763672 h 1.216797 l 0.964843,-2.140625 h 3.847657 L 35.875,27.763672 h 1.273438 l -1.69336,-9.603516 z m 0.615234,1.007813 h 0.05664 c 0,0 0.01436,0.742453 0.07031,1.064453 l 0.71289,4.269531 h -3.162109 l 1.93164,-4.269531 c 0.139891,-0.308 0.390625,-1.064453 0.390625,-1.064453 z m 12.898438,1.064453 c -2.392142,0 -2.923828,2.855393 -2.923828,5.02539 0,1.833999 0.867029,2.675782 2.251953,2.675782 1.496836,0 2.365016,-1.359424 2.546875,-2.857422 h -1.148438 c -0.111913,0.965999 -0.64239,1.833984 -1.425781,1.833984 -0.671478,0 -1.035156,-0.644001 -1.035156,-1.75 0,-0.783999 0.19557,-3.90625 1.734375,-3.90625 0.615521,0 0.908203,0.560672 0.908203,1.638672 v 0.238281 h 1.189453 v -0.251953 c 0,-1.805999 -0.726721,-2.646484 -2.097656,-2.646484 z m -6.042969,1.021484 c 0.685467,0 1.035156,0.533657 1.035156,1.597656 0,1.203999 -0.337147,4.058594 -1.833984,4.058594 -0.685467,0 -1.019531,-0.532032 -1.019531,-1.582031 0,-1.119999 0.36349,-4.074219 1.818359,-4.074219 z"
       style="fill:#000000;fill-opacity:1"
       inkscape:label="letras" />
  </g>
</svg>
