<svg
   width="70"
   height="90"
   class="bookCover"
   viewBox="0 0 70 90"
   version="1.1"
   xmlns="http://www.w3.org/2000/svg"
   xmlns:svg="http://www.w3.org/2000/svg">
   
   <g
     class="bookGroup"
     >
    <path
       id="rect4"
       style="fill:#e8ff00"
       class="bookBaseImg"
       d="M 0,0 H 70 V 90 H 0 Z" />
    <path
       id="rect8"
       style="fill:#7e8905"
       class="bookSideImg"
       d="M 0,0 H 10 V 90 H 0 Z" />
    <path
       class="bookTitleImg"
       d="m 39.386719,17.642578 -1.41211,10.121094 h 0.908203 l 0.251954,-1.021484 c 0.293771,0.909999 0.88062,1.191406 1.580078,1.191406 1.370934,0 2.839844,-1.596707 2.839844,-4.970703 0,-1.889999 -0.782213,-2.730469 -1.859376,-2.730469 -0.6435,0 -1.132793,0.307813 -1.65039,1.007812 l 0.488281,-3.597656 z M 33.875,18.160156 29.482422,27.763672 h 1.216797 l 0.964843,-2.140625 h 3.847657 L 35.875,27.763672 h 1.273438 l -1.69336,-9.603516 z m 0.615234,1.007813 h 0.05664 c 0,0 0.01436,0.742453 0.07031,1.064453 l 0.71289,4.269531 h -3.162109 l 1.93164,-4.269531 c 0.139891,-0.308 0.390625,-1.064453 0.390625,-1.064453 z m 12.898438,1.064453 c -2.392142,0 -2.923828,2.855393 -2.923828,5.02539 0,1.833999 0.867029,2.675782 2.251953,2.675782 1.496836,0 2.365016,-1.359424 2.546875,-2.857422 h -1.148438 c -0.111913,0.965999 -0.64239,1.833984 -1.425781,1.833984 -0.671478,0 -1.035156,-0.644001 -1.035156,-1.75 0,-0.783999 0.19557,-3.90625 1.734375,-3.90625 0.615521,0 0.908203,0.560672 0.908203,1.638672 v 0.238281 h 1.189453 v -0.251953 c 0,-1.805999 -0.726721,-2.646484 -2.097656,-2.646484 z m -6.042969,1.021484 c 0.685467,0 1.035156,0.533657 1.035156,1.597656 0,1.203999 -0.337147,4.058594 -1.833984,4.058594 -0.685467,0 -1.019531,-0.532032 -1.019531,-1.582031 0,-1.119999 0.36349,-4.074219 1.818359,-4.074219 z"
       style="fill:#000000;fill-opacity:1"
        />
  </g>
   </svg>