<svg xmlns:xlink="http://www.w3.org/1999/xlink" width="66.061" xmlns="http://www.w3.org/2000/svg" height="66.061" id="screenshot-8b839b57-b507-8061-8003-20bf78521c2b" viewBox="-2.531 -2.531 66.061 66.061" style="-webkit-print-color-adjust: exact;" fill="none" version="1.1"><g id="shape-8b839b57-b507-8061-8003-20bf78521c2b" width="24" class="feather feather-frown" height="24" rx="0" ry="0" style="fill: rgb(0, 0, 0);"><g id="shape-8b839b57-b507-8061-8003-20bf78535d13"><g class="fills" id="fills-8b839b57-b507-8061-8003-20bf78535d13"><ellipse cy="30.5" stroke-linejoin="round" transform="matrix(1.000000, 0.000000, 0.000000, 1.000000, 0.000000, 0.000000)" style="fill: none;" ry="25.416666666666742" fill="none" stroke-linecap="round" rx="25.416666666666686" cx="30.500000000000057"/></g><g id="strokes-8b839b57-b507-8061-8003-20bf78535d13" class="strokes"><g class="stroke-shape"><ellipse stroke-linecap="round" stroke-linejoin="round" rx="25.416666666666686" ry="25.416666666666742" cx="30.500000000000057" cy="30.5" transform="matrix(1.000000, 0.000000, 0.000000, 1.000000, 0.000000, 0.000000)" style="fill: none; stroke-width: 5.06133; stroke: rgb(86, 44, 26); stroke-opacity: 1;"/></g></g></g><g id="shape-8b839b57-b507-8061-8003-20bf78547fac"><g class="fills" id="fills-8b839b57-b507-8061-8003-20bf78547fac"><path fill="none" stroke-linecap="round" stroke-linejoin="round" rx="0" ry="0" d="M40.667,40.667C40.667,40.667,36.854,35.583,30.500,35.583C24.146,35.583,20.333,40.667,20.333,40.667" style="fill: none;"/></g><g id="strokes-8b839b57-b507-8061-8003-20bf78547fac" class="strokes"><g class="stroke-shape"><path stroke-linecap="round" stroke-linejoin="round" rx="0" ry="0" d="M40.667,40.667C40.667,40.667,36.854,35.583,30.500,35.583C24.146,35.583,20.333,40.667,20.333,40.667" style="fill: none; stroke-width: 5.06133; stroke: rgb(86, 44, 26); stroke-opacity: 1;"/></g></g></g><g id="shape-8b839b57-b507-8061-8003-20bf785482c2"><g class="fills" id="fills-8b839b57-b507-8061-8003-20bf785482c2"><path fill="none" stroke-linejoin="round" stroke-linecap="round" rx="0" ry="0" d="M22.875,22.875L22.875,22.875Z" style="fill: none;"/></g><g id="strokes-8b839b57-b507-8061-8003-20bf785482c2" class="strokes"><g class="stroke-shape"><path stroke-linejoin="round" stroke-linecap="round" rx="0" ry="0" d="M22.875,22.875L22.875,22.875Z" style="fill: none; stroke-width: 5.06133; stroke: rgb(86, 44, 26); stroke-opacity: 1;"/></g></g></g><g id="shape-8b839b57-b507-8061-8003-20bf7854c268"><g class="fills" id="fills-8b839b57-b507-8061-8003-20bf7854c268"><path fill="none" stroke-linejoin="round" stroke-linecap="round" rx="0" ry="0" d="M38.125,22.875L38.125,22.875Z" style="fill: none;"/></g><g id="strokes-8b839b57-b507-8061-8003-20bf7854c268" class="strokes"><g class="stroke-shape"><path stroke-linejoin="round" stroke-linecap="round" rx="0" ry="0" d="M38.125,22.875L38.125,22.875Z" style="fill: none; stroke-width: 5.06133; stroke: rgb(86, 44, 26); stroke-opacity: 1;"/></g></g></g></g></svg>