<svg xmlns:xlink="http://www.w3.org/1999/xlink" width="25" xmlns="http://www.w3.org/2000/svg" height="25" id="screenshot-ad55f1a6-0d23-80ea-8002-b2fe9e0273f2" viewBox="0 0 25 25" style="-webkit-print-color-adjust: exact;" fill="none" version="1.1"><g id="shape-ad55f1a6-0d23-80ea-8002-b2fe9e0273f2" rx="0" ry="0" style="fill: rgb(0, 0, 0);"><g id="shape-ad55f1a6-0d23-80ea-8002-b2fe9e0273f7"><g class="fills" id="fills-ad55f1a6-0d23-80ea-8002-b2fe9e0273f7"><path rx="0" ry="0" d="M11.458,2.083C16.633,2.083,20.833,6.283,20.833,11.458C20.833,16.633,16.633,20.833,11.458,20.833C6.283,20.833,2.083,16.633,2.083,11.458C2.083,6.283,6.283,2.083,11.458,2.083ZZM11.458,18.750C15.487,18.750,18.750,15.487,18.750,11.458C18.750,7.430,15.487,4.167,11.458,4.167C7.430,4.167,4.167,7.430,4.167,11.458C4.167,15.487,7.430,18.750,11.458,18.750ZZM20.297,18.824L23.243,21.770L21.770,23.243L18.824,20.297L20.297,18.824ZZ" style="fill: rgb(40, 21, 13); fill-opacity: 1;"/></g></g></g></svg>